[Header]
FileType HTR
DataType HTRS
FileVersion 1
NumSegments 22
NumFrames 6
DataFrameRate 24
EulerRotationOrder ZYX
CalibrationUnits mm
RotationUnits Degrees
GlobalAxisofGravity Y
BoneLengthAxis Y
ScaleFactor 1.0
[SegmentNames&Hierarchy]
reference	GLOBAL
Hips	reference
Spine	Hips
Spine1	Spine
Neck	Spine1
Head	Neck
LeftShoulder	Spine1
LeftArm	LeftShoulder
LeftForeArm	LeftArm
LeftHand	LeftForeArm
RightShoulder	Spine1
RightArm	RightShoulder
RightForeArm	RightArm
RightHand	RightForeArm
LeftUpLeg	Hips
LeftLeg	LeftUpLeg
LeftFoot	LeftLeg
LeftToeBase	LeftFoot
RightUpLeg	Hips
RightLeg	RightUpLeg
RightFoot	RightLeg
RightToeBase	RightFoot
[BasePosition]
reference	0	0	0	0	0	0	1
Hips	0	0	0	0	0	0	1
Spine	0	0	0	0	-0	90	1
Spine1	0	0	0	0	0	0	1
Neck	0	0	0	-7.352327771	-7.352327771	90	1
Head	0	0	0	0	-0	90	1
LeftShoulder	0	0	0	0	0	0	1
LeftArm	0	0	0	0	0	0	1
LeftForeArm	0	0	0	0	0	0	1
LeftHand	0	0	0	0	0	0	1
RightShoulder	0	0	0	0	-0	180	1
RightArm	0	0	0	0	-0	180	1
RightForeArm	0	0	0	0	-0	180	1
RightHand	0	0	0	0	-0	180	1
LeftUpLeg	0	0	0	0	-0	-90	1
LeftLeg	0	0	0	0	-0	-90	1
LeftFoot	0	0	0	66.57146043	-66.57146043	-90	1
LeftToeBase	0	0	0	0	-90	0	1
RightUpLeg	0	0	0	0	-0	-90	1
RightLeg	0	0	0	0	-0	-90	1
RightFoot	0	0	0	66.57146043	-66.57146043	-90	1
RightToeBase	0	0	0	0	-90	0	1
[reference]
82	0	0	0	0	-0	0	1.0
83	0	0	0	0	-0	0	1.0
84	0	0	0	0	-0	0	1.0
85	0	0	0	0	-0	0	1.0
86	0	0	0	0	-0	0	1.0
87	0	0	0	0	-0	0	1.0
[Hips]
82	-5.342139244	8.314210892	-6.265798569	-6.982942581	-133.3708801	7.276358604	1.0
83	-5.398813248	8.319680214	-6.320571423	-4.076343536	-133.3955994	5.199187756	1.0
84	-5.458385944	8.326250076	-6.373276711	-1.0966326	-133.9984589	2.990892887	1.0
85	-5.537719727	8.334141731	-6.424761295	0.5037689209	-134.913269	1.590484619	1.0
86	-5.629563332	8.341997147	-6.488576412	0.7478568554	-136.678772	1.309036255	1.0
87	-5.735738277	8.349762917	-6.562997818	0.3139207661	-137.85672	1.539400458	1.0
[Spine]
82	0	0.7457100153	0	-4.843837261	-5.967994213	-87.47994995	1.0
83	0	0.7457100153	0	-5.53337574	-5.225615025	-88.34638214	1.0
84	0	0.7457100153	0	-5.965491295	-3.744922161	-88.8916626	1.0
85	0	0.7457100153	0	-6.152948856	-2.102678061	-89.03384399	1.0
86	0	0.7457100153	0	-5.79206562	-0.3324981332	-87.86956787	1.0
87	0	0.7457100153	0	-7.22383213	1.30365932	-87.58482361	1.0
[Spine1]
82	0	2.140589952	0	11.58452415	-2.115661144	2.015750408	1.0
83	0	2.140589952	0	10.81156731	-1.863560915	1.32216835	1.0
84	0	2.140589952	0	9.674427032	-1.349114537	0.4441540241	1.0
85	0	2.140589952	0	9.572389603	-0.6687923074	-0.6033565402	1.0
86	0	2.140589952	0	10.39310074	0.09556804597	-1.028310418	1.0
87	0	2.140589952	0	10.6621294	0.5915236473	-1.5246979	1.0
[Neck]
82	0	2.32246995	0	-10.63752556	11.57563496	-90.44406891	1.0
83	0	2.32246995	0	-10.86056709	11.40865707	-89.92813873	1.0
84	0	2.32246995	0	-10.84441566	12.33135986	-89.83866119	1.0
85	0	2.32246995	0	-10.36822319	12.58668518	-90.07318878	1.0
86	0	2.32246995	0	-11.41574097	12.22258472	-90.84861755	1.0
87	0	2.32246995	0	-10.74865532	11.86525822	-91.62263489	1.0
[Head]
82	0	1.409579992	0.1818799973	-2.87272644	4.76094532	-93.48519135	1.0
83	0	1.409579992	0.1818799973	-2.582424641	4.568821907	-93.31504059	1.0
84	0	1.409579992	0.1818799973	-5.116179466	5.453911304	-93.72943115	1.0
85	0	1.409579992	0.1818799973	-8.078173637	5.580806732	-93.53478241	1.0
86	0	1.409579992	0.1818799973	-7.094058037	5.312932014	-93.84259796	1.0
87	0	1.409579992	0.1818799973	-5.553686142	5.04289484	-94.18267822	1.0
[LeftShoulder]
82	0.3668199778	1.946700096	-0.02662999928	-14.98276901	-18.01215744	-4.027941227	1.0
83	0.3668199778	1.946700096	-0.02662999928	-14.06366062	-17.03034782	-3.893174171	1.0
84	0.3668199778	1.946700096	-0.02662999928	-13.5675602	-16.98522758	-3.589763165	1.0
85	0.3668199778	1.946700096	-0.02662999928	-14.23748302	-15.91586304	-2.695888758	1.0
86	0.3668199778	1.946700096	-0.02662999928	-14.89560795	-14.87919426	-3.043212891	1.0
87	0.3668199778	1.946700096	-0.02662999928	-10.99541759	-15.12014484	-3.224429369	1.0
[LeftArm]
82	1.140689969	0	0	51.9852066	5.413743973	-76.83828735	1.0
83	1.140689969	0	0	48.43891525	5.723665237	-76.84115601	1.0
84	1.140689969	0	0	43.47384262	7.499284744	-75.45827484	1.0
85	1.140689969	0	0	39.45703125	9.878128052	-73.54671478	1.0
86	1.140689969	0	0	36.93077087	12.43401814	-69.94599152	1.0
87	1.140689969	0	0	31.38076591	11.60282421	-67.76135254	1.0
[LeftForeArm]
82	2.749800205	0	0	-86.46212769	-25.74763107	9.228417397	1.0
83	2.749800205	0	0	-82.11976624	-15.92049313	6.340608597	1.0
84	2.749800205	0	0	-80.82239532	-11.2229414	5.001402855	1.0
85	2.749800205	0	0	-80.82271576	-11.23668385	5.006199837	1.0
86	2.749800205	0	0	-80.81227875	-11.24844074	5.018320084	1.0
87	2.749800205	0	0	-75.39572906	-9.283046722	2.350086212	1.0
[LeftHand]
82	2.295179844	0	0	-26.84932709	53.88240051	-59.11322784	1.0
83	2.295179844	0	0	-30.0441494	47.28686905	-66.42525482	1.0
84	2.295179844	0	0	-31.10678864	45.58045959	-68.86210632	1.0
85	2.295179844	0	0	-31.08787918	45.5697403	-68.84407806	1.0
86	2.295179844	0	0	-31.00688553	45.51512146	-68.76097107	1.0
87	2.295179844	0	0	-36.0272522	45.04430008	-78.56490326	1.0
[RightShoulder]
82	-0.3601199985	1.946700096	-0.02662999928	-3.528127432	0.8037065864	175.3983917	1.0
83	-0.3601199985	1.946700096	-0.02662999928	-4.08026123	1.114150047	175.8704987	1.0
84	-0.3601199985	1.946700096	-0.02662999928	-5.75314045	2.055718899	175.3650513	1.0
85	-0.3601199985	1.946700096	-0.02662999928	-6.093660355	2.773975849	175.320343	1.0
86	-0.3601199985	1.946700096	-0.02662999928	-7.629974842	2.944204569	174.1156006	1.0
87	-0.3601199985	1.946700096	-0.02662999928	-4.26523304	3.715318203	175.4113007	1.0
[RightArm]
82	-1.140689969	0	0	46.80551147	-2.407533884	-99.34619141	1.0
83	-1.140689969	0	0	53.34741211	-0.2545159757	-97.75374603	1.0
84	-1.140689969	0	0	57.80501938	0.08276328444	-96.02574158	1.0
85	-1.140689969	0	0	61.71310043	1.594019651	-95.33105469	1.0
86	-1.140689969	0	0	63.3799057	1.923348069	-94.41630554	1.0
87	-1.140689969	0	0	64.04555511	7.649809837	-96.58302307	1.0
[RightForeArm]
82	-2.749800205	0	0	13.34694672	12.26322365	178.4982452	1.0
83	-2.749800205	0	0	-2.349802017	15.50662994	173.7524414	1.0
84	-2.749800205	0	0	-4.734790802	17.91298866	170.596817	1.0
85	-2.749800205	0	0	-8.166963577	20.18008041	167.4028473	1.0
86	-2.749800205	0	0	-3.564873695	22.78972054	164.286438	1.0
87	-2.749800205	0	0	-6.094436646	23.74597931	165.8979034	1.0
[RightHand]
82	-2.295179844	0	0	1.69892633	9.976434708	169.5612793	1.0
83	-2.295179844	0	0	-1.397936106	8.622328758	171.1424103	1.0
84	-2.295179844	0	0	-3.888106823	7.980201721	170.8093567	1.0
85	-2.295179844	0	0	-6.489292622	7.013756752	170.6716919	1.0
86	-2.295179844	0	0	-0.4919797182	9.099456787	179.0140381	1.0
87	-2.295179844	0	0	-2.930270672	-0.2359890938	172.4676819	1.0
[LeftUpLeg]
82	0.9094099998	0	0	-11.55029488	1.787565351	98.20043945	1.0
83	0.9094099998	0	0	-14.89539146	3.656490564	95.17233276	1.0
84	0.9094099998	0	0	-17.44698906	0.6569108367	93.79527283	1.0
85	0.9094099998	0	0	-16.86163902	-1.296798706	92.68397522	1.0
86	0.9094099998	0	0	-11.81014252	-0.8361567259	93.06661987	1.0
87	0.9094099998	0	0	-9.862428665	-0.5575590134	92.03443146	1.0
[LeftLeg]
82	0	-4.498080254	0	69.3717804	8.142936707	89.32661438	1.0
83	0	-4.498080254	0	64.92036438	5.137242317	93.62495422	1.0
84	0	-4.498080254	0	55.38841248	4.872486591	91.96038818	1.0
85	0	-4.498080254	0	43.85398102	3.721800327	92.57832336	1.0
86	0	-4.498080254	0	29.85588837	2.250485897	93.27713013	1.0
87	0	-4.498080254	0	22.54844284	2.657216311	90.19807434	1.0
[LeftFoot]
82	0	-3.729400158	0	-100.4181366	96.99051666	-52.91429138	1.0
83	0	-3.729400158	0	-121.552269	99.22000885	-70.90237427	1.0
84	0	-3.729400158	0	-105.0279541	104.8141632	-51.04777908	1.0
85	0	-3.729400158	0	-110.8366928	98.58569336	-57.7502594	1.0
86	0	-3.729400158	0	-122.8969421	98.0147934	-69.57489777	1.0
87	0	-3.729400158	0	-128.1500854	126.2462006	-73.57421875	1.0
[LeftToeBase]
82	0	-0.5911099911	1.364109993	0	0	0	1.0
83	0	-0.5911099911	1.364109993	0	0	0	1.0
84	0	-0.5911099911	1.364109993	0	0	0	1.0
85	0	-0.5911099911	1.364109993	0	0	0	1.0
86	0	-0.5911099911	1.364109993	0	0	0	1.0
87	0	-0.5911099911	1.364109993	0	0	0	1.0
[RightUpLeg]
82	-0.9094099998	0	0	-1.175261736	0.2383684069	97.51255798	1.0
83	-0.9094099998	0	0	-4.374628067	1.654603481	96.55448914	1.0
84	-0.9094099998	0	0	-5.595275879	2.291819096	95.07222748	1.0
85	-0.9094099998	0	0	-4.9268713	2.930418253	93.88702393	1.0
86	-0.9094099998	0	0	-1.547353029	-0.6447911263	94.78733826	1.0
87	-0.9094099998	0	0	-0.5915720463	-3.479672432	94.22423553	1.0
[RightLeg]
82	0	-4.498080254	0	5.685858727	-0.2648525238	83.09760284	1.0
83	0	-4.498080254	0	5.685858727	-0.2648525238	83.09760284	1.0
84	0	-4.498080254	0	5.685858727	-0.2648525238	83.09760284	1.0
85	0	-4.498080254	0	5.685858727	-0.2648525238	83.09760284	1.0
86	0	-4.498080254	0	5.685858727	-0.2648525238	83.09760284	1.0
87	0	-4.498080254	0	5.685858727	-0.2648525238	83.09760284	1.0
[RightFoot]
82	0	-3.729400158	0	77.79614258	60.97234344	126.4127045	1.0
83	0	-3.729400158	0	77.79614258	60.97234344	126.4127045	1.0
84	0	-3.729400158	0	77.79614258	60.97234344	126.4127045	1.0
85	0	-3.729400158	0	77.79614258	60.97234344	126.4127045	1.0
86	0	-3.729400158	0	77.79614258	60.97234344	126.4127045	1.0
87	0	-3.729400158	0	77.79614258	60.97234344	126.4127045	1.0
[RightToeBase]
82	0	-0.5911099911	1.364109993	0	0	0	1.0
83	0	-0.5911099911	1.364109993	0	0	0	1.0
84	0	-0.5911099911	1.364109993	0	0	0	1.0
85	0	-0.5911099911	1.364109993	0	0	0	1.0
86	0	-0.5911099911	1.364109993	0	0	0	1.0
87	0	-0.5911099911	1.364109993	0	0	0	1.0
[EndOfFile]
